<?xml version="1.0" encoding="utf-8"?>
<svg version="1.1" id="图层_1" xmlns="http://www.w3.org/2000/svg" xmlns:xlink="http://www.w3.org/1999/xlink" x="0px" y="0px"
	 viewBox="0 0 132 132" style="enable-background:new 0 0 132 132;" xml:space="preserve">
<style type="text/css">
	.st0{fill:none;}
	.st1{fill:currentColor;}
</style>
<rect id="size" class="st0" width="132" height="132"/>
<path id="形状结合" class="st1" d="M43.9,17.2c1.4,0,2.7,0.5,3.8,1.4l18.1,15.3l40.6,0c6.8,0,12.5,5.2,13.1,11.9l0.1,1.2l0,27.7
	c0,2.3-1.8,4.2-4.1,4.1c-2.2,0-4.1-1.8-4.1-4.1l0-14.4l-90.7,0l0.1,32.5c0,7.7,6.2,13.8,13.9,13.9l45,0c2.2,0,4.1,1.8,4.1,4.1
	c0,2.2-1.8,4.1-4.1,4.1l-45,0c-12.2,0-22.1-9.9-22.1-22.2l-0.1-62.4c0-7.3,5.9-13.1,13.1-13.1L43.9,17.2z M104.2,84
	c2.2,0.1,4.2,1.9,4.1,4.1l0,7.1l7.1,0c2.2,0,4.2,1.8,4.1,4.1c0,2.2-1.8,4.1-4.1,4.1l-7.1,0l0,7.2c0,2.2-1.8,4.1-4.1,4.1
	c-2.3,0-4.2-1.9-4.2-4.1l0-7.1l-7.1-0.1c-2.3,0-4.2-1.8-4.1-4.1c0-2.2,1.8-4.1,4.1-4.1l7.2,0.1l0-7.2
	C100.1,85.9,101.9,84.1,104.2,84z M43.1,25.4l-17.6,0c-2.4,0-4.4,1.7-4.8,4l-0.1,0.8l0,21.6l90.7,0v-5c0-2.6-2.2-4.8-4.9-4.9
	l-41.5,0c-1.4-0.1-2.7-0.5-3.8-1.4L43.1,25.4z"/>
</svg>
