<?xml version="1.0" encoding="utf-8"?>
<!-- Generator: Adobe Illustrator 26.0.2, SVG Export Plug-In . SVG Version: 6.00 Build 0)  -->
<svg version="1.1" id="图层_1" xmlns="http://www.w3.org/2000/svg" xmlns:xlink="http://www.w3.org/1999/xlink" x="0px" y="0px"
	 viewBox="0 0 132 132" style="enable-background:new 0 0 132 132;" xml:space="preserve">
<style type="text/css">
	.st0{fill:none;}
	.st1{fill-rule:evenodd;clip-rule:evenodd;fill:currentColor;}
</style>
<rect id="size" class="st0" width="132" height="132"/>
<path id="合并" class="st1" d="M18.6,33c0-2.3,1.8-4.1,4.1-4.1h33c2.3,0,4.1,1.8,4.1,4.1s-1.8,4.1-4.1,4.1h-33
	C20.4,37.1,18.6,35.3,18.6,33z M112.2,53.5c1.6-1.6,1.6-4.2,0-5.8L96.9,32.4c-0.6-0.6-1.2-1-1.9-1.3c-0.7-0.3-1.4-0.4-2.2-0.4
	c-0.8,0-1.5,0.1-2.2,0.4c-0.7,0.3-1.3,0.7-1.9,1.3L73.4,47.7c-1.6,1.6-1.6,4.2,0,5.8c1.6,1.6,4.2,1.6,5.8,0L92.8,40l13.6,13.6
	C108,55.2,110.6,55.2,112.2,53.5z M22.7,61.9c-2.3,0-4.1,1.8-4.1,4.1c0,2.3,1.8,4.1,4.1,4.1h33c2.3,0,4.1-1.8,4.1-4.1
	c0-2.3-1.8-4.1-4.1-4.1H22.7z M112.2,85.2c1.6-1.6,1.6-4.2,0-5.8c-1.6-1.6-4.2-1.6-5.8,0L92.8,93L79.2,79.4c-1.6-1.6-4.2-1.6-5.8,0
	c-1.6,1.6-1.6,4.2,0,5.8l15.3,15.3c0.6,0.6,1.2,1,1.9,1.3c0.7,0.3,1.4,0.4,2.2,0.4c0.8,0,1.5-0.1,2.2-0.4c0.7-0.3,1.3-0.7,1.9-1.3
	L112.2,85.2z M18.6,99c0-2.3,1.8-4.1,4.1-4.1h33c2.3,0,4.1,1.8,4.1,4.1c0,2.3-1.8,4.1-4.1,4.1h-33C20.4,103.1,18.6,101.3,18.6,99z"
	/>
</svg>
