<svg width="16.000000" height="16.000000" viewBox="0 0 16 16" fill="none" xmlns="http://www.w3.org/2000/svg"
	xmlns:xlink="http://www.w3.org/1999/xlink">
	<rect id="固定" width="16.000000" height="16.000000" fill="#FFFFFF" fill-opacity="0" />
	<g clip-path="url(#clip2032_29707)">
		<path id="形状结合"
			d="M10.45 2.09C10.87 1.74 11.49 1.77 11.87 2.15L13.84 4.12C14.22 4.5 14.25 5.12 13.9 5.53L11.07 8.89L11.45 9.27C11.83 9.65 11.85 10.24 11.53 10.66L9.52 12.68C9.11 13.09 8.44 13.09 8.03 12.68L6.02 10.67L2.7 14C2.5 14.2 2.18 14.2 1.99 14C1.79 13.81 1.79 13.49 1.99 13.29L5.32 9.97L3.31 7.95C2.92 7.57 2.9 6.96 3.24 6.54L5.23 4.54C5.64 4.13 6.31 4.13 6.72 4.54L7.1 4.92L10.45 2.09Z"
			fill="#191919" fill-opacity="1.000000" fill-rule="nonzero" />
	</g>
</svg>