<?xml version="1.0" encoding="utf-8"?>
<!-- Generator: Adobe Illustrator 26.0.2, SVG Export Plug-In . SVG Version: 6.00 Build 0)  -->
<svg version="1.1" id="图层_1" xmlns="http://www.w3.org/2000/svg" xmlns:xlink="http://www.w3.org/1999/xlink" x="0px" y="0px"
	 viewBox="0 0 132 132" style="enable-background:new 0 0 132 132;" xml:space="preserve">
<style type="text/css">
	.st0{fill:none;}
	.st1{fill-rule:evenodd;clip-rule:evenodd;fill:currentColor}
</style>
<rect id="size" class="st0" width="132" height="132"/>
<path id="JS" class="st1" d="M72.1,108.2c4.8,1.3,9.8,2,15,2c6,0,11.4-1,16.1-2.9c4.7-2,8.3-4.8,10.9-8.3c2.6-3.6,3.9-7.7,3.9-12.4
	c0-4.2-1-7.6-3-10.3c-0.3-0.5-0.7-1-1.1-1.4c-2.7-2.9-6.2-5.1-10.3-6.6c-4.1-1.5-9.8-3.1-17-4.8C79.9,61.9,75,60.1,71.8,58
	c-3.3-2.2-4.9-5.4-4.9-9.6c0-2.9,0.7-5.5,2-7.6c0.8-1.5,2-2.7,3.4-3.8c3.7-2.8,8.8-4.1,15.3-4.1c4.7,0,8.7,0.6,12,1.9
	c3.3,1.2,6.9,3.4,10.9,6.6c1.4,0.9,2.6,1.3,3.4,1.3c0.2,0,0.5,0,0.7-0.1c0.6-0.2,1.1-0.6,1.5-1.2c0.2-0.3,0.4-0.6,0.6-1
	c0.2-0.5,0.4-1.1,0.4-1.8c0-0.4,0-0.7-0.1-1c-0.2-1.1-0.9-2.2-1.8-3.2c-3.2-3.2-7.3-5.6-12-7.3c-4.8-1.7-10-2.5-15.5-2.5
	c-5.9,0-11.2,1-15.8,3c-4,1.7-7.2,4.1-9.7,7.1c-0.4,0.4-0.8,0.9-1.1,1.4c-0.9,1.3-1.6,2.6-2.2,4c-1.1,2.6-1.7,5.5-1.7,8.7
	c0,4.6,1.1,8.4,3.3,11.4c0.2,0.2,0.4,0.4,0.6,0.7c0.2,0.2,0.4,0.5,0.6,0.7c2.5,2.7,5.6,4.9,9.5,6.4c4.2,1.7,9.5,3.3,16,4.8
	C92,73.9,95.9,75,98.7,76c2.9,1,5.2,2.3,7,4.1c1.7,1.7,2.6,3.9,2.6,6.7c0,2.8-0.6,5.3-1.9,7.4c-0.9,1.5-2.1,2.7-3.6,3.8
	c-3.6,2.6-8.8,3.9-15.6,3.9c-5,0-9.8-0.8-14.2-2.4c-3.9-1.4-7.5-3.5-11-6.2c-1.2-0.9-2.3-1.3-3.3-1.3c-0.9,0-1.6,0.4-2.3,1.2
	c-0.2,0.3-0.4,0.7-0.6,1c-0.2,0.6-0.4,1.2-0.4,1.9c0,0.9,0.2,1.7,0.5,2.3c0.3,0.7,0.7,1.3,1.3,1.8c3.2,3,7.6,5.4,13,7.2
	C70.7,107.8,71.4,108,72.1,108.2z M11.5,109c1,0.7,2.6,1,4.5,0.8l3.5-0.2c6.5-0.3,11.4-2.2,14.7-5.7c0.1-0.1,0.3-0.2,0.4-0.4
	c3.3-3.7,5-9.2,5-16.5V29.9c0-1.2-0.3-2.2-0.9-3.1c-0.1-0.2-0.2-0.4-0.4-0.5c-0.9-1-2.1-1.4-3.5-1.4c-0.8,0-1.5,0.1-2.1,0.4
	c-0.5,0.2-1,0.6-1.4,1c-0.9,0.9-1.4,2.1-1.4,3.6V87c0,5-1,8.6-3,10.9s-5,3.5-9,3.7l-3.5,0.2c-2.9,0.1-4.4,1.5-4.4,4
	C10,107.3,10.5,108.4,11.5,109z"/>
</svg>
