<?xml version="1.0" encoding="utf-8"?>
<!-- Generator: Adobe Illustrator 26.0.2, SVG Export Plug-In . SVG Version: 6.00 Build 0)  -->
<svg version="1.1" id="图层_1" xmlns="http://www.w3.org/2000/svg" xmlns:xlink="http://www.w3.org/1999/xlink" x="0px" y="0px"
     viewBox="0 0 64 64" style="enable-background:new 0 0 64 64;" xml:space="preserve">
<style type="text/css">
    .st0{fill:none;stroke:currentcolor;stroke-width:4;stroke-linecap:round;stroke-linejoin:round;stroke-miterlimit:10;}
    .st1{fill:none;stroke:currentcolor;stroke-width:3;stroke-linejoin:round;stroke-miterlimit:10;}
    .st2{fill:none;stroke:currentcolor;stroke-width:3;stroke-miterlimit:10;}
    .st3{fill:none;stroke:currentcolor;stroke-width:3;stroke-linecap:round;stroke-miterlimit:10;}
</style>
<g id="Clip-30">
</g>
<g id="Clip-30_00000082359790372202237170000007339004850009255582_">
</g>
<desc>Created with Pixso.</desc>
<desc>Created with Pixso.</desc>
<polyline class="st0" points="30.6,54.7 12.8,54.7 12.8,10.4 51.8,10.4 51.8,32 "/>
<line class="st1" x1="18.6" y1="23.1" x2="44.9" y2="23.1"/>
<line class="st1" x1="18.6" y1="32.1" x2="35.1" y2="32.1"/>
<g>
    <path class="st2" d="M46.9,51.1L44,54c-1.9,1.9-4.9,1.9-6.7,0l0,0c-1.9-1.9-1.9-4.9,0-6.7l2.9-2.9"/>
    <path class="st2" d="M48.8,49.2l2.9-2.9c1.9-1.9,1.9-4.9,0-6.7l0,0c-1.9-1.9-4.9-1.9-6.7,0l-2.9,2.9"/>
    <line class="st3" x1="47.7" y1="43.6" x2="42.1" y2="49.2"/>
</g>
</svg>